<svg xmlns="http://www.w3.org/2000/svg" width="113.795" height="107.708" viewBox="0 0 113.795 107.708"><defs><style>.a{fill:#f5e0ce;}.a,.b,.c,.d,.e{fill-rule:evenodd;}.b{fill:#f7ece4;}.c{fill:#dbc8b8;}.d{fill:#f4a238;}.e{fill:#5e5f62;}</style></defs><g transform="translate(6.659 11.254)"><g transform="translate(-12 -683)"><g transform="matrix(0.766, -0.643, 0.643, 0.766, 5.051, 736.654)"><g transform="translate(10.39 1.678)"><path class="a" d="M62,27.616c-3.763.709-7.721,1.24-11.21,2.941-2.85,1.39-5.307,3.4-8.134,4.781a.178.178,0,0,1-.215-.279,25.069,25.069,0,0,1,8.49-5.833c3.3-1.366,7.482-2.495,11.068-1.975.187.027.179.335,0,.367M36.47,25.978c-1.588-.667-3.643-1.75-4.391-3.405a.1.1,0,0,1,.15-.115c3.45,3.275,9.36,3.833,13.849,3.689A51.1,51.1,0,0,0,60.73,23.322c.083-.028.139.1.06.141-2.649,1.259-5.422,1.75-8.16,2.693a22.073,22.073,0,0,1-7.889,1.238,23.4,23.4,0,0,1-8.271-1.417M17.66,18.339c-.851-.589-1.157-1.868-1.474-2.815a6.472,6.472,0,0,1-.164-3.309.156.156,0,0,1,.3,0,12.34,12.34,0,0,0,.779,3.3,7.04,7.04,0,0,1,1.033,2.555.315.315,0,0,1-.472.271m67.07-8.5C77.535,8.008,71.324,3.5,64.239,1.258A24.028,24.028,0,0,0,52.207.405c-3.741.676-7.561.915-11.308,1.584A48.631,48.631,0,0,0,30.26,5.315C26.916,6.734,23.843,6.723,20.3,7.094c-3.921.411-7.057,2.144-10.677,3.492-3.03,1.128-6.609.459-9.329,2.427a12.664,12.664,0,0,1,.289,2.029c1.176,1.257,3.183,1.494,4.077,3.174.132.247.249.488.359.725a5.74,5.74,0,0,0,2.214.809c1.008-.028,2.02.091,3.029.1a40.659,40.659,0,0,1,5.568.344c2.516.364,4.293-1.11,6.654-1.572,1.983-.389,4.024-.428,5.3-2.177a2.133,2.133,0,0,1-.374-1.631c.035-.188.284-.181.374-.049a4.008,4.008,0,0,0,1.323,1.5,5.69,5.69,0,0,0,1.73.411,4.337,4.337,0,0,1,2.216.6.3.3,0,0,1-.061.47c-.882.623-2.9.187-3.83-.208a3.472,3.472,0,0,1-.721-.417c-.393,1.524-2.483,1.923-3.935,2.136a15.214,15.214,0,0,0-4.6,1.162,11.46,11.46,0,0,1-2.543.891c.057.66.08,1.324.1,1.99a5.877,5.877,0,0,1-.105,2.189.224.224,0,0,1-.43,0A8.7,8.7,0,0,1,16.7,21.4c-1.143.051-2.266-.514-3.409-.475a30.344,30.344,0,0,1-3.687-.019,7.67,7.67,0,0,1-4.263-1.2,11.839,11.839,0,0,1,.715,3.2.16.16,0,0,1-.3.082c-1.088-2.006-1.414-4.405-3.453-5.781A15.669,15.669,0,0,1,.587,16.065,6.321,6.321,0,0,1,.435,17.21a5.076,5.076,0,0,1,.778,3.515A9.962,9.962,0,0,1,3.777,25.3a.535.535,0,0,1-.306.6,4.394,4.394,0,0,1,3.269.61,7.8,7.8,0,0,1,2.529,2.662,10.56,10.56,0,0,1,6.7,1.528,2.535,2.535,0,0,1,.184-.788.358.358,0,0,1,.651.084c.14.916.457,2.183.047,3.02a.228.228,0,0,1-.357.046,1.751,1.751,0,0,1-.411-.977c-1.891-1.452-4.163-1.641-6.389-2.126a13.454,13.454,0,0,1,.866,2.342.163.163,0,0,1,.05.072,15.833,15.833,0,0,0,1.5,3.527,9.338,9.338,0,0,1,4.29.382,5.727,5.727,0,0,1-.258-.555c-.161-.405.445-.728.722-.419a20.152,20.152,0,0,0,2.3,1.967c.849.7,1.876.679,2.538,1.558.189.25-.121.572-.385.5A8.775,8.775,0,0,1,18,37.635a.491.491,0,0,1-.523.145,34.205,34.205,0,0,0-4.851-1.158,18.282,18.282,0,0,0,2.778,2.265,7.553,7.553,0,0,1,1.246,1.287,14.9,14.9,0,0,0,2.257-.008,11.848,11.848,0,0,1,3.358-.01l.181.018c1.173-.6,3.184-1.931,3.543-2.123,1.2-.649,3.071-1.609,4.471-1.155.127.042.18.241.04.307-1.92.918-3.851,1.728-5.717,2.742-.3.165-.564.315-.807.444a4.314,4.314,0,0,1,2.871,1.583.246.246,0,0,1-.277.359c-2.131-.555-4.057-1.337-6.322-1.3a16.776,16.776,0,0,1-2.45.146,5.417,5.417,0,0,1-.535-.087,9.211,9.211,0,0,1,.678,1.423c.88,1.083.449,3.03,0,4.172a.129.129,0,0,1-.153.086l-.009.01a.064.064,0,0,1-.116-.015l-.019-.077a.1.1,0,0,1,.044-.108,7.833,7.833,0,0,0,.027-.872,4.072,4.072,0,0,0,.018-1.382,2.792,2.792,0,0,0-.089-.406,24.147,24.147,0,0,0-1.994-3.229c-.79-1.068-2.147-1.607-3.068-2.576a8.291,8.291,0,0,1-1.371-1.908c.1,1.175.118,2.323.106,3.371,0,.115-.158.107-.172,0-.394-3.014-.845-6.322-2.476-8.978a8.494,8.494,0,0,0-3.054-3.318c-1.1-.521-3.658-.408-4.588.724-.011.329-.01.659,0,.991.354.364,1.211.577,1.648.884a4.429,4.429,0,0,1,.89.845,3.049,3.049,0,0,1,.607,2.081c-.031,1.615.218,3.49-1.62,3.933A25.839,25.839,0,0,0,13.817,50.331c4.191,2.272,8.724,1.928,13.325,2.375a88.173,88.173,0,0,0,13.237.233c4.631-.243,9.369-.17,13.959-.884a60.574,60.574,0,0,0,12-3.656c4.027-1.527,7.955-3.523,12.166-4.5a29.218,29.218,0,0,1,11.329-.362c1.825-2.943,4.048-8.856,1.835-18.616a41.815,41.815,0,0,0-6.806-15.1.192.192,0,0,1-.128.014"/></g><path class="a" d="M2.192,16.863a2.312,2.312,0,0,1-1.31-.31,21.852,21.852,0,0,0,.2,2.38,10.712,10.712,0,0,1,1.106-2.07"/><path class="a" d="M6.545,9.726C4.592,8.2,3.1,9.175,2.157,10.764a6.914,6.914,0,0,1,1.94,1.72,2.859,2.859,0,0,1,.524,2.5,2.906,2.906,0,0,1-.119.27c1.846-.362,3.988.773,5.448,2.435a26.613,26.613,0,0,0-.673-3.532,9.359,9.359,0,0,0-2.732-4.43"/><path class="b" d="M1.024,14.054A14.514,14.514,0,0,0,.88,16.021a2.1,2.1,0,0,0,2.072-.014,3.447,3.447,0,0,1,.486-.347,1.817,1.817,0,0,0,.3-2.485,7.151,7.151,0,0,0-1.963-1.68,9.7,9.7,0,0,0-.752,2.56"/><path class="a" d="M6.265,20.6a5.351,5.351,0,0,1,4.327.951c-.669-2.006-1.445-3.909-3.642-4.845a3.074,3.074,0,0,0-3.1.085,5.389,5.389,0,0,1,.437.671,4.631,4.631,0,0,0,.468.951c.447.58.786,1.239,1.287,1.778a.393.393,0,0,1,.067.453c.051-.016.1-.033.154-.045"/><path class="a" d="M3.665,25.478a2.943,2.943,0,0,1-1.8-.987,12.391,12.391,0,0,1-.792-1,11.771,11.771,0,0,0,.515,5.419A34.66,34.66,0,0,0,3.9,33.528a15.149,15.149,0,0,1,.021-2.109c.152-1.953-.273-3.981-.259-5.942"/><path class="b" d="M13.3,32.427a13.794,13.794,0,0,0-1.869-1.2,23.594,23.594,0,0,0,1.224,6.377c1.944-.269,1.557-4.211.645-5.18"/><path class="b" d="M7.341,28.075a2.08,2.08,0,0,0-1.379-2.353,9.139,9.139,0,0,1-1.147-.681c.038,1.889.4,3.74.267,5.642,1.44.163,2.116-1.206,2.259-2.608"/><path class="b" d="M5.624,20.85c-.4-.2-.811-1.025-.926-1.232a12.487,12.487,0,0,1-.872-1.677c-.1-.267-.287-.539-.379-.822-1.114,1.063-1.672,3.013-2.052,4.61-.055.233-.1.464-.146.695a1.636,1.636,0,0,0,.183.416,7.442,7.442,0,0,0,.838.98,2.607,2.607,0,0,0,1.432.834c.019-.233.044-.462.081-.69A4.393,4.393,0,0,1,5.624,20.85"/><path class="a" d="M8.768,41.405c1.031,1.4,1.924,2.913,2.981,4.3,2.285,2.986,5.4,3.451,8.515,4.873-5.879-5.07-10.094-12.992-9.417-20.848a1.476,1.476,0,0,1,.572-1.345,11.785,11.785,0,0,1,2.142-.755.4.4,0,0,1-.332-.258,11.554,11.554,0,0,0-2.988-4.6c-.936-.77-2.408-1.7-3.7-1.162a2.888,2.888,0,0,0-1.709,2.545c.8.872,2.017,1.285,2.829,2.186.513.568.233,1.625.117,2.264-.307,1.7-1.207,2.992-2.729,2.519a10.99,10.99,0,0,0,.438,5.048,24.094,24.094,0,0,0,3.279,5.239"/><path class="c" d="M11.426,20.886S16.095,28.8,17.064,26.6s1.647-2.976,2.81-1.135,3.489,6.2,5.524,4.359,2.354-6.833,2.354-6.833-10.9-1.133-11.8-2.114-3.536-1.762,1.5-1.93,9.118-3.466,8.334-6.077S27.479,11.8,28.523,14.8A4.911,4.911,0,0,0,34.9,17.688c1.938-.849,2.229-5.111,2.326-6.661s2.423,1.84,3.2,3.294S50.208,25,63.292,24.652s17.735-4.281,19.091-5.708,1.938.927,2.326,5.708,6.1,11.924-.581,11.356S62.9,34.666,54.472,38.735s-9.364-.4-18.026,3a6.837,6.837,0,0,1-4.264.483c-2.883-.378-4.752-.449-6.385-1.657s-3.693-1.539-1.174-1.637,6.636-1.461,3.9-1.892-2.349-.723-3.9-1.885S19.4,32.2,20.265,32.017s2.42-.839,1.548-1.13S15.839,26,14.167,26.973s-2.74-6.087-2.74-6.087"/><path class="d" d="M87.149,27.969c0,14.21-15.389,25.73-34.371,25.73s-34.372-11.52-34.372-25.73S33.795,2.24,52.777,2.24,87.149,13.76,87.149,27.969"/><path class="e" d="M11.748,45.7c-1.057-1.382-1.949-2.892-2.981-4.3a24.09,24.09,0,0,1-3.279-5.238,10.98,10.98,0,0,1-.438-5.048c1.522.473,2.422-.818,2.729-2.519.115-.639.395-1.7-.118-2.264-.812-.9-2.025-1.314-2.829-2.186A2.889,2.889,0,0,1,6.542,21.6c1.29-.541,2.762.392,3.7,1.162a11.546,11.546,0,0,1,2.988,4.6.405.405,0,0,0,.332.259,11.726,11.726,0,0,0-2.142.755,1.476,1.476,0,0,0-.572,1.344c-.678,7.856,3.538,15.778,9.417,20.848-3.112-1.422-6.23-1.887-8.515-4.873M4.815,25.04a9.2,9.2,0,0,0,1.147.681,2.08,2.08,0,0,1,1.379,2.353c-.142,1.4-.818,2.771-2.259,2.608.136-1.9-.23-3.754-.267-5.642M3.783,23.962c-.038.229-.062.458-.081.69a2.605,2.605,0,0,1-1.432-.834,7.476,7.476,0,0,1-.839-.979,1.64,1.64,0,0,1-.183-.416c.045-.231.091-.461.146-.694.38-1.6.937-3.548,2.052-4.61.093.282.28.554.379.821A12.414,12.414,0,0,0,4.7,19.618c.114.207.523,1.037.925,1.232a4.393,4.393,0,0,0-1.841,3.113m.142,7.458A15.08,15.08,0,0,0,3.9,33.528a34.575,34.575,0,0,1-2.316-4.615,11.767,11.767,0,0,1-.515-5.419,12.565,12.565,0,0,0,.792,1,2.944,2.944,0,0,0,1.8.987c-.014,1.96.412,3.989.259,5.942M2.193,16.863a10.715,10.715,0,0,0-1.106,2.07,21.973,21.973,0,0,1-.2-2.38,2.321,2.321,0,0,0,1.31.31M1.024,14.054a9.7,9.7,0,0,1,.752-2.56,7.143,7.143,0,0,1,1.963,1.68,1.817,1.817,0,0,1-.3,2.484,3.487,3.487,0,0,0-.486.348,2.1,2.1,0,0,1-2.072.014,14.583,14.583,0,0,1,.145-1.967M6.545,9.726a9.354,9.354,0,0,1,2.732,4.429,26.56,26.56,0,0,1,.674,3.533c-1.461-1.661-3.6-2.8-5.449-2.435a2.919,2.919,0,0,0,.12-.271,2.859,2.859,0,0,0-.524-2.5,6.918,6.918,0,0,0-1.94-1.72C3.1,9.175,4.591,8.2,6.545,9.726m4.047,11.825A5.351,5.351,0,0,0,6.265,20.6c-.053.012-.1.028-.154.045a.392.392,0,0,0-.067-.453c-.5-.538-.839-1.2-1.287-1.778a4.652,4.652,0,0,1-.468-.952,5.388,5.388,0,0,0-.437-.671,3.074,3.074,0,0,1,3.1-.085c2.2.936,2.973,2.839,3.642,4.845m2.7,10.876c.911.969,1.3,4.91-.645,5.179a23.572,23.572,0,0,1-1.224-6.377,13.833,13.833,0,0,1,1.869,1.2m87.05,12.806a29.172,29.172,0,0,0-11.454.343c-4.212.978-8.14,2.974-12.167,4.5a60.607,60.607,0,0,1-12,3.656c-4.59.714-9.328.641-13.959.884a88.178,88.178,0,0,1-13.237-.233c-4.6-.447-9.134-.1-13.325-2.375A25.838,25.838,0,0,1,12.936,38.416c1.838-.444,1.589-2.318,1.62-3.933a3.049,3.049,0,0,0-.607-2.081,4.429,4.429,0,0,0-.89-.845c-.437-.307-1.294-.52-1.648-.884-.006-.332-.007-.662,0-.991.929-1.133,3.488-1.245,4.588-.724a8.5,8.5,0,0,1,3.054,3.317c1.63,2.657,2.081,5.965,2.475,8.979.014.107.171.115.173,0,.012-1.048-.01-2.2-.106-3.371a8.29,8.29,0,0,0,1.371,1.908c.922.969,2.278,1.508,3.068,2.576A24.2,24.2,0,0,1,28.032,45.6,2.778,2.778,0,0,1,28.12,46a4.059,4.059,0,0,1-.018,1.382,7.842,7.842,0,0,1-.026.872.1.1,0,0,0-.044.107c.006.026.012.052.019.077a.064.064,0,0,0,.116.015l.008-.01a.129.129,0,0,0,.153-.086c.455-1.143.885-3.089.005-4.173a9.216,9.216,0,0,0-.678-1.423,5.258,5.258,0,0,0,.534.086,16.721,16.721,0,0,0,2.45-.145c2.265-.033,4.191.749,6.322,1.3a.247.247,0,0,0,.277-.359,4.315,4.315,0,0,0-2.871-1.583c.243-.13.5-.279.807-.444,1.866-1.014,3.8-1.824,5.717-2.743.14-.066.087-.265-.04-.307-1.4-.454-3.267.506-4.471,1.154-.358.192-2.369,1.525-3.542,2.124l-.182-.018a11.845,11.845,0,0,0-3.357.01,14.9,14.9,0,0,1-2.257.008A7.558,7.558,0,0,0,25.8,40.565,18.279,18.279,0,0,1,23.018,38.3a34.223,34.223,0,0,1,4.851,1.158.491.491,0,0,0,.523-.145A8.769,8.769,0,0,0,31.7,41c.264.072.573-.251.384-.5-.662-.878-1.689-.854-2.538-1.558a20.254,20.254,0,0,1-2.3-1.967c-.277-.31-.883.014-.722.419a5.771,5.771,0,0,0,.258.555,9.338,9.338,0,0,0-4.29-.382A15.843,15.843,0,0,1,21,34.041a.159.159,0,0,0-.05-.073,13.422,13.422,0,0,0-.867-2.341c2.226.485,4.5.673,6.39,2.126a1.752,1.752,0,0,0,.411.977.228.228,0,0,0,.357-.046c.409-.836.093-2.1-.047-3.019a.358.358,0,0,0-.65-.085,2.526,2.526,0,0,0-.184.789,10.56,10.56,0,0,0-6.7-1.528,7.8,7.8,0,0,0-2.529-2.662,4.393,4.393,0,0,0-3.269-.61.536.536,0,0,0,.306-.6A9.964,9.964,0,0,0,11.6,22.4a5.076,5.076,0,0,0-.778-3.515,6.327,6.327,0,0,0,.152-1.145A15.627,15.627,0,0,0,12.7,18.89c2.039,1.376,2.365,3.775,3.452,5.781.072.133.312.079.3-.082a11.82,11.82,0,0,0-.715-3.2A7.674,7.674,0,0,0,20,22.587a30.344,30.344,0,0,0,3.687.019c1.142-.04,2.266.526,3.409.475a8.7,8.7,0,0,0,.224,4.086.224.224,0,0,0,.429,0,5.864,5.864,0,0,0,.106-2.189c-.018-.666-.04-1.33-.1-1.99A11.464,11.464,0,0,0,30.3,22.1a15.212,15.212,0,0,1,4.6-1.162c1.452-.214,3.541-.612,3.935-2.136a3.458,3.458,0,0,0,.721.417c.927.4,2.947.832,3.829.208a.3.3,0,0,0,.061-.47,4.34,4.34,0,0,0-2.215-.6,5.7,5.7,0,0,1-1.73-.411,4.006,4.006,0,0,1-1.323-1.5c-.089-.132-.339-.139-.374.049a2.131,2.131,0,0,0,.374,1.631c-1.277,1.749-3.319,1.788-5.3,2.177-2.361.462-4.138,1.935-6.654,1.572a40.75,40.75,0,0,0-5.568-.344c-1.009-.011-2.022-.131-3.03-.1a5.74,5.74,0,0,1-2.213-.809c-.11-.237-.227-.477-.359-.725-.894-1.68-2.9-1.917-4.077-3.174a12.712,12.712,0,0,0-.288-2.029c2.719-1.969,6.3-1.3,9.329-2.427,3.62-1.348,6.756-3.081,10.677-3.492,3.544-.371,6.616-.36,9.962-1.779A48.624,48.624,0,0,1,51.289,3.667C55.036,3,58.856,2.759,62.6,2.083a24.026,24.026,0,0,1,12.032.853c7.085,2.24,13.3,6.75,20.492,8.579.219.056.37-.267.157-.374C93.7,10.352,92,9.855,90.391,9.115c-1.953-.9-3.844-1.941-5.754-2.926A79.27,79.27,0,0,0,74.247,1.718c-7.333-2.536-15.2-.683-22.643.548A40.251,40.251,0,0,0,41.219,5.423a23.342,23.342,0,0,1-5.457,1.9c-2.213.413-4.476.449-6.7.754-3.659.5-6.878,2.516-10.416,3.427-2.762.711-5.911.558-8.107,2.588-.843-3.122-2.812-6.2-5.578-6.2C-.253,7.87-.342,15.869.791,19.74a16.4,16.4,0,0,0-.749,6.209C.283,29.209,2.132,31.931,4,34.5a11.267,11.267,0,0,0,.958,3.175C6.041,40,7.978,41.962,9.425,44.065A15.9,15.9,0,0,0,13.913,48.9c2.07,1.287,4.738,1.837,7.08,2.394a.162.162,0,0,0,.126-.021,15.943,15.943,0,0,0,10.046,3.357,61.824,61.824,0,0,1,7.7.481,52.7,52.7,0,0,0,6.61.741c4.606.1,9.267-.289,13.866-.539A42.96,42.96,0,0,0,72.2,52.294c4.54-1.688,9.06-3.472,13.7-4.874,4.709-1.425,9.485-1.052,14.316-1.215.537-.018.7-.868.131-.973"/><path class="e" d="M71.12,25a51.123,51.123,0,0,1-14.652,2.824c-4.489.145-10.4-.414-13.848-3.689a.1.1,0,0,0-.15.115c.747,1.655,2.8,2.738,4.391,3.405a23.4,23.4,0,0,0,8.271,1.417,22.062,22.062,0,0,0,7.889-1.239c2.738-.943,5.511-1.434,8.16-2.693.079-.037.023-.169-.06-.141"/><path class="e" d="M27.49,17.191a12.359,12.359,0,0,1-.78-3.3.155.155,0,0,0-.3,0,6.471,6.471,0,0,0,.164,3.309c.317.947.623,2.226,1.474,2.815a.315.315,0,0,0,.472-.271,7.041,7.041,0,0,0-1.033-2.555"/><path class="e" d="M72.387,28.928c-3.586-.519-7.771.61-11.068,1.975a25.075,25.075,0,0,0-8.49,5.834.178.178,0,0,0,.214.279c2.827-1.385,5.283-3.391,8.134-4.781,3.488-1.7,7.447-2.232,11.21-2.94.179-.032.187-.34,0-.367"/></g></g></g></svg>