<svg xmlns="http://www.w3.org/2000/svg" width="51.738" height="103.691" viewBox="0 0 51.738 103.691"><defs><style>.a{fill:#f5e0ce;}.a,.b,.c,.d{fill-rule:evenodd;}.b{fill:#dbc8b8;}.c{fill:#0ab1d8;}.d{fill:#5e5f62;}</style></defs><g transform="translate(0 0)"><g transform="translate(-37 -348)"><g transform="translate(37 348)"><path class="a" d="M27.236,57.327c-.683.8-1.344,1.654-1.943,2.517a19.216,19.216,0,0,0-2.964,5.373c-.618,2.121-1.51,4.123-1.988,6.294-.46,2.092-.563,4.236-1.028,6.321-.088.4-.617.261-.654-.088-.489-4.587,1.579-9.1,3-13.328a21.256,21.256,0,0,1,3.382-5.364,31.4,31.4,0,0,1,3.568-3.723c.091-.087.209.023.164.128a7.844,7.844,0,0,1-1.542,1.87M15.743,62.016c1.53-2.068,4.133-2.721,6.255-3.978a19.958,19.958,0,0,1,2.128-1,17.37,17.37,0,0,0,1.849-1.184c1.144-.683,2.088-1.667,3.256-2.3a.283.283,0,0,1,.34.444,15.026,15.026,0,0,1-5.742,4.012c-1.206.5-2.355,1.1-3.568,1.574a13.415,13.415,0,0,0-4.417,2.509c-.051.047-.146-.017-.1-.078M9.21,58.087c-.058.037-.105-.041-.068-.088a20.764,20.764,0,0,1,2.993-3.446A20.073,20.073,0,0,1,15.794,52.1a31.874,31.874,0,0,1,4.4-1.85,50.179,50.179,0,0,1,4.892-1.729c.222-.049.449.249.242.417A11.512,11.512,0,0,1,21.484,50.7a37.7,37.7,0,0,0-5.29,2.082,19.519,19.519,0,0,0-4.433,2.836A22.017,22.017,0,0,1,9.21,58.087M38.954,96.876a20.739,20.739,0,0,1,1.971-8.831c.5-.933,1.067-1.826,1.653-2.7a10.658,10.658,0,0,1-6.319,3.209c-2.456.171-6.4.136-7.869-2.286-.047-.077.066-.169.126-.1a5.879,5.879,0,0,0,4.2,1.6,10.938,10.938,0,0,0,4.4-.281,13.057,13.057,0,0,0,4.4-2.458,9.442,9.442,0,0,1,2.59-1.941c.008,0,.017,0,.026-.007.776-1.111,1.548-2.226,2.248-3.391a27.973,27.973,0,0,0,3.712-9.41c.648-3.574.417-7.252.529-10.869a66.519,66.519,0,0,0-.464-10.7,21.494,21.494,0,0,1-.253-5.061c.183-1.7.565-3.377.679-5.076.092-1.379.157-4.472-1.791-4.752-1.753-.252-3.363,1.23-4.134,2.668a11.851,11.851,0,0,0-1.282,3.833c-.08.534-.189,4.19.22,4.248a.308.308,0,0,1,0,.59l-.11.016a.333.333,0,0,1-.363-.148c-.025-.045-.045-.091-.069-.138-.031.087-.066.171-.1.255,0,.021,0,.042,0,.063a.33.33,0,0,1-.131.257,18.482,18.482,0,0,0-1.277,3.184,33.6,33.6,0,0,0-.721,4.662,8.967,8.967,0,0,1-1.19,3.913,2.794,2.794,0,0,1,1.647.058.193.193,0,0,1,.045.347c-.619.447-1.369.352-2.047.664a7.023,7.023,0,0,0-1.863,1.7c-.573.557-1.5,1.779-2.384,1.63-.161-.028-.12-.241,0-.288.606-.241,1.17-1.145,1.607-1.6.523-.551.951-1.179,1.478-1.723.039-.04.081-.078.125-.116a.15.15,0,0,1,.055-.221c1.171-.586,1.617-3.195,1.686-4.356a22.459,22.459,0,0,1,.253-2.837,18.672,18.672,0,0,1,1.915-5.824c-.618-3.937-.241-8-1-11.948-.73-3.823-1.287-7.647-1.954-11.474-.311-1.78-.626-3.563-.837-5.36a25.091,25.091,0,0,0-.864-5.6c-.342-.942-1.325-3.5-2.951-2.314a5.517,5.517,0,0,0-1.886,2.7,14.56,14.56,0,0,0-.739,2.892,57.221,57.221,0,0,0,.25,11.129c.441,2.984.494,5.928.8,8.92.191,1.884.342,3.5-.92,4.678.747.072,1.514-.042,1.812.874.162.5-.607.7-.774.212-.181-.53-1.756-.328-2.226-.534-.319-.142-.24-.587,0-.747,2.151-1.44,1.077-5.334,1-7.577-.077-2.144-.329-4.236-.529-6.37a116.387,116.387,0,0,1-.384-13.369,44.609,44.609,0,0,0,.126-5.892C30.881,3.119,30,.232,27.566,1.032c-2.262.747-3.22,3.24-3.154,5.458a31.1,31.1,0,0,1,.1,3.132c-.017.226-.048.452-.083.676a10.513,10.513,0,0,1,.1,2.191,35.18,35.18,0,0,1-.714,4.165,33.854,33.854,0,0,0-.481,5.513c-.056,3.265-.208,6.4.008,9.667.189,2.848.661,6.122-.226,8.892a.374.374,0,0,1-.733-.1c-.132-2.708.156-5.466.087-8.191-.067-2.637.172-5.153.288-7.779.109-2.5-.241-5.164.139-7.626s1.023-5.017.334-7.484c-.356-1.276-1.282-3.4-2.983-3.226s-3,1.962-3.376,3.532c-.681,2.81-.285,5.613-.584,8.453-.286,2.726-.863,5.411-1.218,8.129-.322,2.465-.612,4.95-1.049,7.4q.047,1.145.037,2.307c-.019,2.481,0,5.5-.8,7.861-.06.176-.37.222-.4,0-.318-2.2.326-4.486.342-6.7a38.776,38.776,0,0,0-.479-7A32.763,32.763,0,0,1,12,24.128c.02-2.265.162-5.423-2.147-6.517-2.584-.38-3.348,6.87-3.576,8.17-.45,2.566-.508,5.2-1.068,7.74-1.1,4.987.189,10.047-.256,15.079.084-.34.162-.679.224-1.022.026-.148.248-.106.252.034a33.708,33.708,0,0,1-.547,5.178c-.268,2.136-.555,4.272-.749,6.416-.358,3.938-.485,7.809-.481,11.762,0,2.039-.267,4.291.216,6.291.444,1.84.994,3.665,1.582,5.465,1.014,3.105,2.83,5.6,3.35,8.813.1.549.182,1.1.242,1.641.185,1.645.693,4.169.022,5.847,2.361,1.862,6.606,4.12,13.62,4.607A19.519,19.519,0,0,0,39.071,97.07a.2.2,0,0,1-.117-.194"/><path class="b" d="M6.476,24.491s.091,5.393,2.653,5.666,1.031,1.428,0,1.623-1.2,3.456-2.653,8.1-.944,5.914,1.28,5.879,4.836-.706,5.141-5.021,1.953-12.78,2.175-14.306,1.3-7.564,1.336-10.1.964,1.006.862,4.026-1.37,5.6,1.317,6.028.154,2.306-1.317,2.657-1.751,2.574-2.5,6.1,2.5,6.28,3.815,5.594,3.372-7.618,2.858-11.111,1.141-6.864,1.242-9.266,3.672-11.684,2.723-13.3.35,3.609.16,6.358-.127,6.5,1.553,6.946.653,2.162-.887,3.021-1.311,7.88-.827,11.587,3.874.271,4.232-3.854.5-8.963,0-10.754-.642-2.925.323-5.743,1.885-1.073,1.851,1.709.067,7.57,3.147,7.57.513.72,0,3.969-1.3,8.529,1.49,8.9,3.576.612,3.643-4.58,1.319,4.277,1.689,8.372,1.582,1.705-.234,8.093-2.332,9.732-6.514,12.683-7.8,14.464-6.249,19.276,7.714,9.259,5.148,9.355-10.166.1-15.349.956-7.2-3.953-2.856-8.248,6.708-24.5,13.911-27.371,11.138-6.2,5.492-7.029-15.765,2.215-21.657,5.247,3.436-3.666,9.21-6.331-1.926-2.318-7.915,0-10.22,2.943-9.89-5.36S6.476,24.491,6.476,24.491"/><path class="c" d="M50.818,66.686A25.409,25.409,0,1,1,25.409,41.167,25.464,25.464,0,0,1,50.818,66.686"/><path class="d" d="M28.614,55.329a31.326,31.326,0,0,0-3.568,3.723,21.247,21.247,0,0,0-3.382,5.364c-1.426,4.225-3.493,8.741-3.005,13.328.038.349.566.483.654.088.465-2.084.567-4.228,1.027-6.321.478-2.172,1.37-4.173,1.988-6.294a19.218,19.218,0,0,1,2.964-5.374,31.716,31.716,0,0,1,1.943-2.517,7.845,7.845,0,0,0,1.542-1.87.105.105,0,0,0-.164-.127"/><path class="d" d="M29.231,53.556c-1.169.632-2.112,1.616-3.256,2.3a17.414,17.414,0,0,1-1.848,1.184,19.923,19.923,0,0,0-2.128,1c-2.123,1.257-4.726,1.91-6.256,3.978-.045.062.05.126.1.078a13.408,13.408,0,0,1,4.417-2.509c1.213-.476,2.361-1.073,3.568-1.575A15.024,15.024,0,0,0,29.571,54a.283.283,0,0,0-.34-.444"/><path class="d" d="M25.086,48.518a50.084,50.084,0,0,0-4.893,1.73,31.906,31.906,0,0,0-4.4,1.85,20.083,20.083,0,0,0-3.658,2.455A20.762,20.762,0,0,0,9.142,58c-.037.046.01.125.068.088a22.067,22.067,0,0,0,2.551-2.465,19.517,19.517,0,0,1,4.433-2.836,37.725,37.725,0,0,1,5.29-2.082,11.513,11.513,0,0,0,3.844-1.768c.207-.169-.02-.467-.242-.418"/><path class="d" d="M51.584,51.919c-.157-1.919-.507-3.817-.67-5.737a30.006,30.006,0,0,1,.559-6.341c.316-2.486.48-6.019-2.4-7.022-2.477-.862-4.836,2.107-5.724,3.981a11.179,11.179,0,0,0-.683,1.866,68.285,68.285,0,0,0-1.4-8.554C40.117,25.1,39.92,19.851,39.431,14.733a17.67,17.67,0,0,0-1.325-5.776c-.46-1-1.761-2.53-3.047-2.089a5.461,5.461,0,0,0-2.974,3.359c.065-1.524.11-3.049.091-4.573C32.136,2.405,30.12-1.384,26.39.5c-1.7.863-2.539,2.986-2.774,4.76a11.7,11.7,0,0,0,.021,2.55,6.165,6.165,0,0,0-.99-1.382c-1.422-1.491-3.3-1.223-4.76-.028-2.029,1.657-2.325,4.572-2.433,7-.073,1.636.027,3.267-.1,4.9-.14,1.785-.5,3.573-.8,5.335a66.548,66.548,0,0,0-.783,7.115c-.108-.829-.245-1.656-.429-2.488-.563-2.554.5-10.062-3.052-11.042-3.924-2.123-5.2,9.9-5.4,11.768-.358,3.293-1.384,6.594-1.076,9.913.369,3.983.295,7.928.337,11.915a.232.232,0,0,0,.165.219c-.078.329-.15.659-.2.994q-.482,2.935-.828,5.89a109.563,109.563,0,0,0-.663,12.453c0,1.952-.09,3.916.056,5.862A24.582,24.582,0,0,0,4.11,81.895,25.245,25.245,0,0,0,6,86.6,18.42,18.42,0,0,1,7.32,89.657a24.989,24.989,0,0,1,.7,4.11c.13,1.859-.087,3.792.142,5.63a.344.344,0,0,0,.635.173c1.07-1.63.457-4.557.251-6.39-.061-.54-.138-1.092-.242-1.641-.52-3.214-2.336-5.709-3.35-8.813-.588-1.8-1.137-3.625-1.582-5.465-.483-2-.214-4.252-.216-6.292,0-3.953.124-7.824.481-11.762.195-2.144.482-4.279.75-6.416a33.7,33.7,0,0,0,.547-5.178c0-.139-.225-.182-.252-.034-.061.343-.139.682-.224,1.022.444-5.032-.841-10.092.256-15.079.559-2.543.619-5.174,1.068-7.741.228-1.3.992-8.55,3.576-8.17,2.31,1.094,2.167,4.252,2.147,6.516a32.767,32.767,0,0,0,.72,6.172,38.783,38.783,0,0,1,.478,7c-.016,2.216-.66,4.5-.342,6.7.032.222.343.176.4,0,.8-2.36.779-5.381.8-7.861q.009-1.164-.037-2.307c.437-2.452.727-4.938,1.049-7.4.356-2.719.932-5.4,1.219-8.129.3-2.84-.1-5.643.584-8.453.38-1.57,1.668-3.362,3.375-3.532s2.627,1.95,2.982,3.226c.689,2.466.045,5.029-.334,7.484s-.03,5.128-.139,7.625c-.116,2.627-.355,5.142-.287,7.78.069,2.724-.219,5.482-.087,8.191a.375.375,0,0,0,.733.1c.887-2.77.415-6.044.226-8.892-.216-3.264-.064-6.4-.008-9.667a33.873,33.873,0,0,1,.481-5.513,35.181,35.181,0,0,0,.715-4.164,10.546,10.546,0,0,0-.1-2.191c.035-.225.066-.45.082-.676a30.983,30.983,0,0,0-.1-3.132c-.066-2.217.892-4.71,3.155-5.458,2.429-.8,3.314,2.087,3.509,3.835a44.667,44.667,0,0,1-.126,5.892,116.282,116.282,0,0,0,.384,13.368c.2,2.134.452,4.225.529,6.37.081,2.243,1.155,6.137-1,7.577-.24.16-.319.606,0,.747.47.206,2.045,0,2.226.534.167.489.936.284.774-.213-.3-.915-1.066-.8-1.813-.874,1.263-1.179,1.111-2.794.921-4.678-.3-2.992-.355-5.937-.8-8.92a57.208,57.208,0,0,1-.25-11.128,14.579,14.579,0,0,1,.739-2.892,5.518,5.518,0,0,1,1.886-2.7c1.627-1.185,2.61,1.371,2.951,2.313a25.105,25.105,0,0,1,.865,5.6c.211,1.8.526,3.58.836,5.36.667,3.827,1.224,7.651,1.954,11.473.755,3.951.377,8.012,1,11.948a18.685,18.685,0,0,0-1.915,5.824,22.637,22.637,0,0,0-.253,2.837c-.069,1.161-.514,3.77-1.685,4.356a.151.151,0,0,0-.056.221c-.043.038-.086.076-.124.116-.527.544-.955,1.172-1.478,1.723-.437.459-1,1.363-1.607,1.6-.12.047-.161.26,0,.289.881.149,1.811-1.073,2.385-1.63a7.013,7.013,0,0,1,1.863-1.7c.677-.312,1.428-.217,2.046-.664a.193.193,0,0,0-.045-.347,2.784,2.784,0,0,0-1.647-.058,8.981,8.981,0,0,0,1.19-3.913,33.612,33.612,0,0,1,.721-4.663,18.425,18.425,0,0,1,1.277-3.184.329.329,0,0,0,.13-.258c0-.02,0-.041,0-.062.034-.084.069-.169.1-.255.024.046.044.093.069.137a.332.332,0,0,0,.362.148l.11-.016a.308.308,0,0,0,0-.59c-.408-.058-.3-3.713-.22-4.248a11.851,11.851,0,0,1,1.283-3.833c.771-1.438,2.38-2.921,4.134-2.668,1.948.28,1.883,3.373,1.79,4.752-.113,1.7-.5,3.381-.679,5.077a21.491,21.491,0,0,0,.254,5.061,66.573,66.573,0,0,1,.463,10.7c-.112,3.617.118,7.295-.529,10.868a27.979,27.979,0,0,1-3.712,9.411c-.7,1.164-1.472,2.279-2.248,3.391l-.025.007a9.437,9.437,0,0,0-2.59,1.941,13.045,13.045,0,0,1-4.4,2.458,10.94,10.94,0,0,1-4.4.28,5.877,5.877,0,0,1-4.2-1.6c-.06-.071-.173.02-.126.1,1.47,2.423,5.412,2.457,7.869,2.286a10.654,10.654,0,0,0,6.319-3.209c-.586.879-1.149,1.772-1.653,2.7a20.752,20.752,0,0,0-1.971,8.831c-.014.257.405.318.449.061.3-1.75.446-3.491.9-5.218a19.018,19.018,0,0,1,3.049-5.9c2.231-3.261,4.7-6.417,6.207-10.109A29.559,29.559,0,0,0,51.569,64.5c.026-4.185.356-8.406.015-12.583"/></g></g></g></svg>