<svg xmlns="http://www.w3.org/2000/svg" width="61.855" height="75.377" viewBox="0 0 61.855 75.377"><defs><style>.a{fill:#f7ece4;}.a,.b,.c,.d,.e{fill-rule:evenodd;}.b{fill:#f5e0ce;}.c{fill:#5e5f62;}.d{fill:#dbc8b8;}.e{fill:#a6d243;}</style></defs><g transform="translate(0 -0.449)"><g transform="translate(-32 -512)"><g transform="translate(32 512)"><path class="a" d="M24.127,31.75a1.622,1.622,0,0,0-1.583,1.523,4.341,4.341,0,0,0,.069.9,5.152,5.152,0,0,0,.868,1.155c1.179,1.162,2.429.925,3.8,1.315a32.375,32.375,0,0,1-1.333-4.6,2.743,2.743,0,0,0-1.821-.288"/><path class="b" d="M42.26,9.041c-1.944-1.81-3.84-4.472-6.334-5.548C32.578,2.05,30.377,4.826,28.52,7.147c-.924,1.154-2.255,3.174-3.809,3.7a8.183,8.183,0,0,1,1.5,1.75.336.336,0,0,1,.265.479,4.788,4.788,0,0,1,.374,1c.444,1.823-1.157,3.668-2.479,4.658a9.431,9.431,0,0,1-4.828,1.874.108.108,0,0,1-.06.006l-.055,0a2.1,2.1,0,0,1-.134,1.433,4.319,4.319,0,0,0,.3,1.577,16.815,16.815,0,0,1,.7,2.024,44.2,44.2,0,0,1,1.194,4.719,15.837,15.837,0,0,0,.563,2.5c.011-.054.017-.1.033-.157A2.278,2.278,0,0,1,23.4,31.212a3.53,3.53,0,0,1,2.368-.059,7.385,7.385,0,0,1,.679-4.508c1.009-1.9,2.114-3.6,3-5.567a21.882,21.882,0,0,1,1.389-3.154,16.333,16.333,0,0,0,1.665-2.63.126.126,0,0,1,.212-.021c1.565-2.588,3.671-5.415,6.73-4.288,1.447.533,2.89,1.074,4.318,1.659a24.83,24.83,0,0,1,3.089,1.177c.445.258.879.543,1.306.842-.911-2.637-4-3.856-5.891-5.621"/><path class="b" d="M17.056,20.488a12.72,12.72,0,0,1-2.922-.926c.765,2.12.582,4.931,1.143,7,.265.978.5,2.064.871,3.071,0-.023,0-.048,0-.069A2.131,2.131,0,0,1,17.395,27.8a3.4,3.4,0,0,1,2.634-.076,28.852,28.852,0,0,0-.888-3.23,4.674,4.674,0,0,1,0-3.857,9.222,9.222,0,0,1-2.082-.147"/><path class="b" d="M53.153,69.077c-1.307-3.541-.034-7.537,1.587-10.788a68.075,68.075,0,0,0,2.289-6.68,54.379,54.379,0,0,0,1.1-5.82c0-.909-.063-1.837-.137-2.644a20.187,20.187,0,0,0-.959-4.129,2.914,2.914,0,0,1-.238-1.145.1.1,0,0,1,.208,0c.031.485.726,1.244.916,1.7a13.816,13.816,0,0,1,.8,2.491c.519-2.561,1.372-5.033,1.789-7.612.452-2.792.627-6.409-2.116-8.159-2.653-1.692-5.6-1.685-8.529-2.462-2.388-.634-5.8-2.258-8.248-1.375-2.944,1.06-4.382,4.131-5.395,6.877-.607,1.644-1,3.769-2.358,4.985a3.186,3.186,0,0,0-.083.388,6.562,6.562,0,0,0,1.343,4.456,11.022,11.022,0,0,1,.557,1.077,2.187,2.187,0,0,1,2.013-.935,2.007,2.007,0,0,1,1.521,1.385,4.779,4.779,0,0,1,.478,1.975,4.453,4.453,0,0,0,1.036-.6c1.487-1.129.677-2.923,1.749-4.232.927-1.131,2.045-2.292,2.084-3.857.019-.765-.058-1.52-.077-2.285a.213.213,0,0,1,.417-.056,6.032,6.032,0,0,1,.317,2.707.185.185,0,0,1,.027.018c2.356,2.156,6.1-.757,8.406-1.658.146-.056.257.157.15.257a15.408,15.408,0,0,1-2.936,2.147,2.606,2.606,0,0,1,2.076.874c.09.128-.058.289-.194.252-.275-.075-.58-.345-.838-.382a10.218,10.218,0,0,0-1.1-.151c-.37-.014-.746-.017-1.119-.039a4.879,4.879,0,0,1-1.522.346c-.818.028-2.554-.118-3.125-.952-.018.052-.031.1-.052.155-.575,1.4-2.553,2.857-2.567,4.342-.018,1.973-.5,3.624-2.746,4.139a3.094,3.094,0,0,1-3.363-.891c-1.775,1.892-5.116,1.126-6.643-.742a11.608,11.608,0,0,1-1.023,9.473.313.313,0,0,1-.57-.24c.746-2.564,1.746-4.954,1.239-7.707-.206-1.121-.576-2.259-.773-3.4A24.9,24.9,0,0,1,27.5,37.3l-.021-.064c-2.734.9-5.035-.989-6.1-3.388-2.795,1.889-5.451-2.047-6.237-4.409q-.481-1.446-.823-2.927a4.759,4.759,0,0,0-.819.412c-.216.1-.7.179-.83.4a.265.265,0,0,1-.355.093.786.786,0,0,1-.1-.053.2.2,0,0,1-.022-.321c.061-.429.511-.654.868-.869a4.714,4.714,0,0,1,1.065-.553c0-.008,0-.015-.005-.023l-.006,0a4.762,4.762,0,0,0-1.3.076c-.308.1-.611.22-.919.315a5.186,5.186,0,0,1-1.251.431.132.132,0,0,1-.066-.245c.019-.009.045-.116.069-.14.125-.126.3-.214.44-.332a4.929,4.929,0,0,1,.836-.544,4.121,4.121,0,0,1,2.028-.492c-.111-.671-.2-1.345-.262-2.024-.105-1.169-.269-2.346-.414-3.51a29.1,29.1,0,0,1-3.7-2.421.081.081,0,0,1,.082-.14c3.773,1.67,8.528,4.625,12.707,2.1,1.678-1.011,4.1-2.923,3.152-5.083-1.4.878-2.352,2.648-4.134,2.426-1.219-.152-2.9-1.474-3.777-2.308-2.674-2.533.676-4.315,3.188-4.553-.339-.328-.659-.665-.947-1-.7-.818-1.128-1.866-1.9-2.624-1.241-1.221-2.732-1.217-4.36-1.02a12.966,12.966,0,0,0-4.68,1.2c-1.6.857-1.806,2.337-2.244,3.92-.276,1-.559,2-.866,2.991a34,34,0,0,1-.912,3.741C4.08,18.923,3.053,21.417,2.355,24c-.9,3.341-1.754,6.418.013,9.639a24.1,24.1,0,0,1,2.687,6.315c.643,2.857,1.2,5.675,2.11,8.469s1.885,6.139,3.949,8.335a21.159,21.159,0,0,0,3.243,2.766,5.114,5.114,0,0,1,1.889,1.9,20.138,20.138,0,0,1,1.467,5.733c3.388,3.383,10.081,8.931,17.342,8.662a29.627,29.627,0,0,0,18.121-6.7.454.454,0,0,1-.023-.043"/><path class="b" d="M35.492,29.134a18.229,18.229,0,0,1,1.575-3.655c1.274-2.066,2.876-3.718,5.347-4.155,2.809-.5,5.626,1.428,8.317,1.907a34.721,34.721,0,0,1,6.484,1.348c-.462-1.023-.765-2.253-1.159-2.965a5.33,5.33,0,0,0-3.766-2.7,2.107,2.107,0,0,1-1.023-.57c-1.181-.77-2.214-1.965-3.334-2.72-2.051-1.385-4.619-2.032-6.932-2.9-1.573-.592-3.176-1.395-4.752-.243a12.722,12.722,0,0,0-2.382,2.077c-.5.587-1.046,1.159-1.5,1.792-.2.415-.438.811-.69,1.235a.577.577,0,0,1-.093.165A19.76,19.76,0,0,0,30.43,20.7a18.378,18.378,0,0,1-1.705,3.979c-1.01,1.49-2.266,3.345-2.083,5.237.194,2.011,1.307,3.134,2.086,4.868a.264.264,0,0,1-.358.359,4.411,4.411,0,0,1-.97-.69c.118.273.228.549.32.832.407,1.246.746,2.518,1.252,3.731.018.043.038.082.057.125a2.307,2.307,0,0,1,2.552-1.222,3.054,3.054,0,0,1,2.472,1.819,6.155,6.155,0,0,1,.557,2.9,5.808,5.808,0,0,0,1.21-.473c-.392-.589-.747-1.283-1.156-2a9.365,9.365,0,0,1-1.582-3.707c-.094-1.409.658-2.4.789-3.727a.158.158,0,0,1,.316,0,2.616,2.616,0,0,1-.147.993c.791-1.32.983-3.219,1.453-4.585"/><path class="a" d="M32.479,38.908c-1.183-.614-3.209-.518-3.111.932,1.028,1.919,2.588,3.108,4.52,2.922-.14-1.243-.149-3.2-1.409-3.854"/><path class="a" d="M39.088,42.841a8.31,8.31,0,0,0-.778-2.342A1.2,1.2,0,0,0,37,39.992c-.628.108-1.094.3-.971.978a5.882,5.882,0,0,0,.481.8,2.466,2.466,0,0,0,2.575,1.074"/><path class="b" d="M23.019,3.032c-.825,1.063-1.8,2.756-3.087,3.379a10.281,10.281,0,0,0,2.15,2.454c.466.358.97.7,1.455,1.069.252.169.5.351.74.545C25.9,9.8,27.246,7.584,28.2,6.25A14.767,14.767,0,0,1,30.556,3.6a10.6,10.6,0,0,0-3.265-1.889,3.423,3.423,0,0,0-4.272,1.325"/><path class="a" d="M21.08,33.089a7.259,7.259,0,0,1-.263-1.074c-.173-1.052-.348-2.109-.552-3.16a2.224,2.224,0,0,0-.3-.318,2.318,2.318,0,0,0-2.153-.388c-1.5.453-1.328,1.929-.842,3.132a3.607,3.607,0,0,0,4.111,1.808"/><path class="a" d="M23.08,10.974A14.127,14.127,0,0,1,21.152,9.5a6.325,6.325,0,0,0-1.8.235c-.971.325-3.62,1.614-1.793,3.352a13.152,13.152,0,0,0,2.6,1.813c2.239,1.25,3.342-.934,4.993-1.916l-.007-.01a14.545,14.545,0,0,0-2.067-2"/><path class="c" d="M40.616,65.878c-1.009-.858-2.12-1.551-3.164-2.366-1.425-1.109-2.336-3-3.189-4.554-1.615-2.933-1.6-6.275-1.465-9.51a.054.054,0,0,0-.106-.014c-1.766,5.977.944,15.268,7.7,16.829.209.049.411-.226.224-.385"/><path class="d" d="M8.583,9.5s4.514,6.117,8.04,7.4,5.573.173,6.867,0-1.122,2.656-3.558,2.657-6.737-1.018-6.662-.423.676,5.533.676,5.533,2.385,7.883,4.905,8.531,3.2-.329,3.2-.329a5.441,5.441,0,0,0,5.425,4.364s2.4,7.114,8.344,4.924c0,0,5.513,1.693,6.1-.735s.846-3.067-.568-4.469-.021-3.589.568-5.775a15.244,15.244,0,0,0,.471-5.175c-.011-2.157.5-3.112,2.56-1.413s2.184,2.233,5.14,3.446,5.825,1.273,5.911-.775.771.164,1.8,2.363,3.167,3.35,2.383,6.466-1.5,9.518-2.968,13.3-4.9,11-4.6,16.266.174,3.081-2.524,4.5-9.925,4.116-11,1.672S33.385,68.2,33,62.038s-.514-10.085.129-13.46,3.6,1.77,5.269,7.173,6.3,7.59,8.481.772S45.958,44.56,41.92,45.075s-7.8,1.855-9.757,1.543-2.249,3.345-3.533,8.747-3.688-6.689-3.386-9.391-7.666-10.765-12.292-13.1-5.269-1.843-2.57-3.246,1.671-2.493-.771-3.621S6.655,24.394,9.226,23.8s1.67-6.549.385-8.523-3.47-7-1.028-5.776"/><path class="d" d="M20.83,20.4s-1.26,4.032.25,5.606,3.231,6.243,4.682,2.743,2.483-6.711,4.152-8.857,2.844-5.512,4.433-6.99,3.834-2.4,5.849-1.639,4.626.5,3.341-.274a35.883,35.883,0,0,0-5.986-2.576c-1.081-.258-1.433-1.8-3.635-.516s-2.863-2.828-2.863-2.828-.35,3.585,1.055,5.137.176,4.9-2.743,6.826-4.994,1.7-4.994,1.7Z"/><path class="d" d="M27.281,28.041s-.707,5.109,2.506,4.833,4.883-7.065,5.654-9.073a17.36,17.36,0,0,0,.572-7.8c-.443-1.672-.315.23,2.641,1.98s3.577.593,3.266-1.209.461.515,3.288,1.93,4.5,2.871,6.04,3.365,1.432,1.737-1.276.987-8.393-3.156-10.241-.6-5.758,5.847-5.815,8.856-.274,5.125-1.752,5.328-7.195-3.548-4.883-8.6"/><path class="d" d="M16.1,20.266a5.333,5.333,0,0,0-.573,4.329c.771,2.343-.737.973,1.559.8s2.406-1.115,2.232-2.938-3.218-2.19-3.218-2.19"/><path class="e" d="M57.6,39.013A28.625,28.625,0,1,1,28.972,10.361,28.639,28.639,0,0,1,57.6,39.013"/><path class="c" d="M50.732,23.231c-2.692-.478-5.508-2.4-8.317-1.907-2.472.437-4.074,2.09-5.347,4.155a18.229,18.229,0,0,0-1.575,3.655c-.471,1.366-.662,3.265-1.453,4.585a2.614,2.614,0,0,0,.147-.993.158.158,0,0,0-.316,0c-.131,1.33-.882,2.318-.788,3.727a9.365,9.365,0,0,0,1.581,3.707c.41.72.764,1.414,1.156,2a5.81,5.81,0,0,1-1.209.473,6.155,6.155,0,0,0-.558-2.9,3.054,3.054,0,0,0-2.472-1.819,2.307,2.307,0,0,0-2.552,1.222c-.018-.042-.039-.082-.057-.125-.506-1.213-.845-2.485-1.252-3.731-.092-.283-.2-.559-.32-.832a4.389,4.389,0,0,0,.971.689.264.264,0,0,0,.358-.358c-.78-1.734-1.891-2.857-2.086-4.868-.183-1.892,1.074-3.748,2.083-5.237a18.371,18.371,0,0,0,1.7-3.979,19.782,19.782,0,0,1,1.153-2.948.566.566,0,0,0,.094-.165c.252-.424.487-.82.69-1.235.454-.632,1-1.2,1.5-1.792a12.715,12.715,0,0,1,2.382-2.077c1.576-1.152,3.18-.349,4.752.243,2.314.87,4.882,1.517,6.932,2.9,1.12.755,2.153,1.95,3.334,2.72a2.107,2.107,0,0,0,1.023.57,5.332,5.332,0,0,1,3.767,2.7c.394.713.7,1.942,1.159,2.965a34.735,34.735,0,0,0-6.485-1.348M29.368,39.84c-.1-1.45,1.928-1.546,3.111-.932,1.261.655,1.27,2.611,1.409,3.854-1.932.186-3.492-1-4.52-2.922M23.48,35.325a5.149,5.149,0,0,1-.868-1.156,4.369,4.369,0,0,1-.069-.9,1.622,1.622,0,0,1,1.583-1.523,2.747,2.747,0,0,1,1.821.288,32.484,32.484,0,0,0,1.333,4.6c-1.372-.39-2.622-.152-3.8-1.314m-3.188-9.672a16.713,16.713,0,0,0-.7-2.025,4.327,4.327,0,0,1-.3-1.577,2.094,2.094,0,0,0,.134-1.433c.018,0,.037,0,.056,0a.107.107,0,0,0,.059-.006,9.426,9.426,0,0,0,4.828-1.874c1.322-.99,2.922-2.835,2.479-4.658a4.806,4.806,0,0,0-.374-1,.336.336,0,0,0-.265-.479,8.185,8.185,0,0,0-1.5-1.751c1.553-.525,2.884-2.545,3.808-3.7,1.857-2.321,4.059-5.1,7.406-3.654,2.495,1.075,4.39,3.737,6.335,5.548,1.9,1.766,4.98,2.985,5.891,5.621-.427-.3-.862-.584-1.306-.842a24.821,24.821,0,0,0-3.089-1.176c-1.428-.586-2.87-1.126-4.318-1.659-3.058-1.127-5.164,1.7-6.73,4.288a.126.126,0,0,0-.213.021,16.33,16.33,0,0,1-1.664,2.629,21.846,21.846,0,0,0-1.389,3.154c-.887,1.971-1.992,3.666-3,5.567a7.382,7.382,0,0,0-.679,4.508,3.532,3.532,0,0,0-2.368.059,2.279,2.279,0,0,0-1.313,1.506c-.016.054-.022.1-.033.157a15.837,15.837,0,0,1-.563-2.5,44.268,44.268,0,0,0-1.194-4.718m-3.324,5.628c-.486-1.2-.658-2.679.842-3.132a2.317,2.317,0,0,1,2.153.388,2.231,2.231,0,0,1,.3.318c.2,1.052.379,2.108.552,3.16a7.327,7.327,0,0,0,.263,1.074,3.607,3.607,0,0,1-4.111-1.809m-.82-1.652c-.369-1.007-.606-2.093-.871-3.071-.56-2.065-.377-4.875-1.142-7a12.725,12.725,0,0,0,2.922.925,9.251,9.251,0,0,0,2.082.147,4.674,4.674,0,0,0,0,3.857,28.951,28.951,0,0,1,.888,3.229,3.4,3.4,0,0,0-2.634.076,2.132,2.132,0,0,0-1.244,1.763c0,.021,0,.047,0,.07M20.161,14.9a13.183,13.183,0,0,1-2.6-1.813c-1.827-1.737.822-3.026,1.793-3.352a6.344,6.344,0,0,1,1.8-.235,14.12,14.12,0,0,0,1.928,1.472,14.566,14.566,0,0,1,2.067,2l.006.01c-1.65.983-2.754,3.166-4.992,1.917m-.229-8.491c1.285-.623,2.262-2.316,3.087-3.379a3.424,3.424,0,0,1,4.272-1.325A10.6,10.6,0,0,1,30.556,3.6,14.771,14.771,0,0,0,28.2,6.25c-.958,1.334-2.3,3.546-3.926,4.229-.241-.193-.488-.376-.74-.545-.486-.368-.989-.711-1.456-1.069a10.28,10.28,0,0,1-2.15-2.454M37,39.992a1.2,1.2,0,0,1,1.307.506,8.311,8.311,0,0,1,.778,2.343,2.465,2.465,0,0,1-2.574-1.074,5.869,5.869,0,0,1-.481-.8c-.123-.674.343-.869.971-.978M59.3,25.705c-.177-.132-.36-.252-.546-.367C57.963,23.847,57.6,22.1,56.778,20.6a4.765,4.765,0,0,0-2.069-1.881c-.985-.538-2.075-.515-3.029-.993-.59-.55-1.122-1.161-1.746-1.692-.382-.324-.78-.638-1.186-.942a.257.257,0,0,0,.117-.246c-.21-2.424-2.767-4.068-4.581-5.379C41.622,7.545,39.7,4.824,36.958,3a5.1,5.1,0,0,0-5.616,0C29.636,1.577,26.953-.05,24.678.595a4.705,4.705,0,0,0-2.286,1.954,23.8,23.8,0,0,1-1.707,2.16c-.4.412-.551.979-.981,1.376-.213-.306-.431-.613-.666-.915-1.608-2.07-3.817-2-6.232-1.658-2.043.293-5.189.884-6.014,3.121-.087.236-.166.478-.241.72a.15.15,0,0,0-.19.116c-.64,2.677-1.2,5.414-2.09,8.018-.947,2.763-2.147,5.422-2.987,8.222C.618,25.931-.44,28.986.2,31.335c.691,2.549,2.469,4.558,3.4,7.009s1.122,5.173,1.727,7.715a49.2,49.2,0,0,0,2.738,8.017A14.4,14.4,0,0,0,12.8,59.839c1.525,1.176,2.7,1.64,3.441,3.625.537,1.44.74,2.955,1.133,4.436.061.231.453.191.426-.059a21.235,21.235,0,0,0-1.55-6.418,5.117,5.117,0,0,0-1.889-1.9,21.184,21.184,0,0,1-3.243-2.766c-2.063-2.2-3.039-5.527-3.949-8.336S5.7,42.814,5.056,39.957a24.109,24.109,0,0,0-2.687-6.315C.6,30.421,1.454,27.344,2.355,24c.7-2.587,1.725-5.08,2.527-7.635a33.95,33.95,0,0,0,.912-3.741c.306-1,.59-2,.866-2.991C7.1,8.053,7.306,6.573,8.9,5.716a12.958,12.958,0,0,1,4.68-1.2c1.629-.2,3.119-.2,4.36,1.02.769.757,1.2,1.805,1.9,2.624.288.338.608.675.948,1-2.512.238-5.863,2.02-3.188,4.553.88.834,2.559,2.155,3.777,2.308,1.783.222,2.733-1.548,4.134-2.426.951,2.161-1.474,4.073-3.152,5.084-4.179,2.52-8.934-.435-12.707-2.1a.081.081,0,0,0-.082.141,29.135,29.135,0,0,0,3.7,2.42c.145,1.164.309,2.341.414,3.51.061.679.151,1.353.262,2.024a4.127,4.127,0,0,0-2.029.492,4.894,4.894,0,0,0-.835.545c-.138.117-.315.206-.44.332-.024.025-.05.131-.069.141a.132.132,0,0,0,.066.245,5.165,5.165,0,0,0,1.251-.431c.308-.094.611-.218.919-.315a4.762,4.762,0,0,1,1.3-.076l.006,0c0,.008,0,.015,0,.023a4.7,4.7,0,0,0-1.064.554c-.357.214-.808.439-.869.868a.2.2,0,0,0,.022.321.8.8,0,0,0,.1.053.265.265,0,0,0,.355-.093c.126-.222.614-.3.83-.4a4.774,4.774,0,0,1,.819-.412q.34,1.481.823,2.928c.786,2.361,3.442,6.3,6.237,4.408,1.069,2.4,3.37,4.289,6.1,3.388.007.021.014.043.021.064a24.9,24.9,0,0,0,1.043,2.89c.2,1.136.567,2.274.773,3.4.506,2.753-.493,5.142-1.239,7.707a.313.313,0,0,0,.57.24,11.608,11.608,0,0,0,1.023-9.473c1.528,1.868,4.869,2.634,6.643.742a3.093,3.093,0,0,0,3.363.891c2.244-.516,2.727-2.166,2.746-4.139.014-1.485,1.992-2.944,2.568-4.342.021-.051.033-.1.052-.155.571.834,2.307.98,3.125.952a4.865,4.865,0,0,0,1.522-.346c.373.022.749.025,1.119.039a10.371,10.371,0,0,1,1.1.151c.258.037.563.308.838.382.136.037.284-.124.194-.252a2.608,2.608,0,0,0-2.076-.874A15.4,15.4,0,0,0,53.8,32.964c.107-.1,0-.314-.15-.258-2.307.9-6.05,3.814-8.406,1.658a.184.184,0,0,0-.026-.017A6.037,6.037,0,0,0,44.9,31.64a.214.214,0,0,0-.417.056c.02.765.1,1.52.077,2.285-.039,1.565-1.156,2.726-2.084,3.857-1.072,1.309-.262,3.1-1.749,4.232a4.45,4.45,0,0,1-1.037.6,4.781,4.781,0,0,0-.478-1.975,2.006,2.006,0,0,0-1.521-1.385,2.187,2.187,0,0,0-2.013.935,11,11,0,0,0-.557-1.077,6.564,6.564,0,0,1-1.343-4.456,3.176,3.176,0,0,1,.083-.388c1.355-1.216,1.752-3.34,2.358-4.985,1.013-2.745,2.451-5.816,5.395-6.877,2.451-.883,5.86.742,8.248,1.375,2.931.776,5.876.769,8.529,2.462,2.743,1.75,2.568,5.367,2.116,8.159-.417,2.579-1.271,5.052-1.789,7.612a13.769,13.769,0,0,0-.8-2.491c-.19-.458-.885-1.217-.916-1.7a.1.1,0,0,0-.208,0,2.919,2.919,0,0,0,.238,1.145,20.175,20.175,0,0,1,.959,4.129c.075.807.136,1.735.138,2.644a54.514,54.514,0,0,1-1.1,5.82,68.128,68.128,0,0,1-2.29,6.679c-1.621,3.252-2.894,7.248-1.587,10.788a.291.291,0,0,0,.558,0c.778-2.107,0-4.44.5-6.621a24.044,24.044,0,0,1,.676-2.756A46.5,46.5,0,0,0,58.1,51.178c.17-.645.307-1.294.431-1.945.121-.4.237-.8.345-1.213a6.6,6.6,0,0,0,.154-1.944c.237-1.779.44-3.563.78-5.336.885-4.606,4.4-11.4-.5-15.035"/><path class="c" d="M40.616,65.878c-1.009-.858-2.12-1.551-3.164-2.366-1.425-1.109-2.336-3-3.189-4.554-1.615-2.933-1.6-6.275-1.465-9.51a.054.054,0,0,0-.106-.014c-1.766,5.977.944,15.268,7.7,16.829.209.049.411-.226.224-.385"/></g></g></g></svg>