<svg xmlns="http://www.w3.org/2000/svg" width="52.614" height="101.572" viewBox="0 0 52.614 101.572"><defs><style>.a{fill:#f5e0ce;}.a,.b,.c,.d{fill-rule:evenodd;}.b{fill:#dbc8b8;}.c{fill:#ffe36a;}.d{fill:#5e5f62;}</style></defs><g transform="translate(0 0)"><g transform="translate(-36 -869)"><g transform="translate(36 869)"><path class="a" d="M14.811,101.208a19.476,19.476,0,0,1,4.234-6.838,13.913,13.913,0,0,1,2.107-2.035,27.981,27.981,0,0,1-4.381-.689c-.18-.039-.142-.35.044-.327A21.892,21.892,0,0,0,26.5,90.187a14.573,14.573,0,0,0,5.327-3.142c.158-.135.306-.262.452-.382-.7.039-1.359.042-1.916.038-2.01-.014-6.688,1.105-8.2-.766a.2.2,0,0,1,.234-.306c1.063.512,3.051.031,4.114-.148a24.374,24.374,0,0,1,3.853-.27,13.365,13.365,0,0,0,5.061-.831c.813-.309,1.326-.841,2.22-.74.149.015.318.158.25.33a3.192,3.192,0,0,1-.706,1.07c3.008-.536,6.237-1.182,8.247-3.584,2.814-3.364,3.53-9.914-2.745-9.161-3.305.4-6.491.889-9.81,1.109-2.252.15-4.287.446-6-1.235a.172.172,0,0,1,.206-.27c2.156,1.153,4.973.287,7.274.106,2.47-.2,4.862-.858,7.315-1.191,1.934-.262,4.206-.183,5.76.935,1.107-2.922,1.711-6.152-.142-8.944a9.61,9.61,0,0,0-8.6-4.261,90.485,90.485,0,0,0-10.541,1.486c-2.3.356-4.291.467-6.252-.947-.155-.111-.067-.387.136-.325,4.3,1.3,9.161-.8,13.479-1.453,3.126-.474,6.606-.61,9.425,1.089a10.259,10.259,0,0,1,4.536,5.269c1.117-3.43,2.419-6.622,2.007-10.428-.49-4.52-3.03-7.672-7.845-7.576-7.5.15-14.949,2.4-22.431,1.486a.229.229,0,0,1,0-.457c2.59-.273,5.139-.338,7.713-.8,2.292-.415,4.605-.943,6.928-1.155,3.766-.343,8.978-1.6,12.49.375a8.5,8.5,0,0,1,1.165.785A52.921,52.921,0,0,0,46.929,39.2c-1.042-2.333-2.2-4.353-4.9-4.913a20.129,20.129,0,0,0-6.511-.095.294.294,0,0,1-.129.014c-2.9.365-5.808,1.073-8.5,1.479-4.341.655-10.472,1.736-13.917,4.806-2.29,2.04-2.294,4.272-1.205,7.008.464,1.167.508,1.7.255,2.269a5.064,5.064,0,0,1-1.1,3.016,6.037,6.037,0,0,0-.278,7.091c.123.2.269.414.418.63a.418.418,0,0,1,.174.218c.008.02.012.044.019.066a4.021,4.021,0,0,1,.865,2.051,8.88,8.88,0,0,1,.033,2.52c-.5,1.8-1.051,3.673.041,5.412,1.434,2.284,2.327,4.469,1.593,7.2a.271.271,0,0,1-.52,0c-.478-1.891-.32-3.677-1.366-5.44a7.335,7.335,0,0,1-1.264-2.741c-.193-1.955.688-3.826.561-5.738A9.617,9.617,0,0,1,8.87,67.822c-1.48,1.473-2.955,2.884-4.484,4.306a10.913,10.913,0,0,1-3.41,2.556C.349,78.365-.673,85.691.631,88.28a27.6,27.6,0,0,0,14.292,13.235.265.265,0,0,1-.111-.307"/><path class="a" d="M20.387,35.408a70.893,70.893,0,0,1,8.471-1.7c1.867-.29,4.1-.8,6.374-1.132.011-.123.02-.245.025-.367a.289.289,0,0,1-.022-.043,40.593,40.593,0,0,1-.9-5.119c-.287-1.463-.644-2.914-.826-4.4-.378-3.069-.266-6.08-.347-9.157-.1-3.837-1.171-7.55-4.531-9.764C26.6,2.393,22.874.571,20.488,2.112,17.1,4.3,18.78,9.31,19.535,12.486a51.233,51.233,0,0,1,1.7,8.554,57.161,57.161,0,0,1-.007,9.362,19.988,19.988,0,0,1-.846,5.005"/><path class="b" d="M21.889,3.289S19.7,8,22.516,14.177s4.228,7.145,7.046,7.3,2.818-7.3,2.818-7.3.652,6.41,1.3,9.639,1.55,8.759,1.55,8.759-1.285-8.155-6.452-6.946-5.95,9.78-5.95,9.78-1.625,1.247-1.6-5.005-.4-13.715-1.281-16.226S17.026,3.922,21.889,3.289"/><path class="b" d="M12.975,40.489s-.87,6.3,4.257,5.332,14.639-2.191,20-3.639,7.991-1.18,6.392-4.54,0-.675,1.892,2.715,2.647,3.75,0,4.123-20.531,2.159-23.333,2.767-9.112.609-9.4,5.983,6.6,6.8,10.671,6.327,16.145-3.95,18.477-2.735,2.626-1.968,3.5-4.439.99.676,1.8,3.922,1.367,6.011,0,5.416-2.8-5.645-23.778-1.22S18.8,73.341,27.079,71.9c0,0,3.422,1.453,10.468.164S24.967,75.73,25.777,77.914s15.2,3.132,16.853,2.184.923-8.06,2.3-6,.752,8.155-3.9,8.988-5.959,1.4-10.673,2.13-5.216,5.863-8.412,6.056-3.038-1.651-7.732,2.827-5.369,3.19-5.894-.03,3.075-7.209,3.7-10.983.681-9.474-.755-11.6,1.716-6.588.852-8.639-3.744-5.592-2.045-8.618a8.717,8.717,0,0,0,.4-6.57s-2.191-6.47,2.5-7.163"/><path class="c" d="M38.793,16.751C38.793,26,33.344,33.5,26.622,33.5S14.453,26,14.453,16.751,19.9,0,26.622,0s12.17,7.5,12.17,16.751"/><path class="d" d="M35.231,32.575c-2.277.331-4.507.842-6.373,1.131a71.067,71.067,0,0,0-8.471,1.7,19.965,19.965,0,0,0,.846-5.005,57.217,57.217,0,0,0,.008-9.362,51.285,51.285,0,0,0-1.705-8.554C18.78,9.31,17.1,4.3,20.488,2.112c2.386-1.541,6.111.281,8.139,1.616,3.361,2.215,4.43,5.927,4.531,9.764.081,3.076-.031,6.088.347,9.157.182,1.482.538,2.934.826,4.4a40.593,40.593,0,0,0,.9,5.119.345.345,0,0,0,.023.043c-.005.121-.015.244-.026.367M49.917,65.381c-.02-.119-.211-.892-.234-1.008,3.13-4.6,4.251-11.978.861-16.752A39.018,39.018,0,0,0,48.15,38.68c-.894-2.219-1.695-4.044-3.874-5.268-2.292-1.286-5.245-1.311-8.186-.952A5.488,5.488,0,0,0,36.1,31.1c.222-3.294-.971-6.889-1.271-10.1-.34-3.645.162-7.3-.326-10.929C33.726,4.309,28-.094,22.356.053c-7,.182-5.447,8.372-4.423,12.879a75.858,75.858,0,0,1,2.008,12.435c.192,3.146.376,7.168-.555,10.34a23.493,23.493,0,0,0-6.867,3.315,6.678,6.678,0,0,0-2.843,4.293,7.082,7.082,0,0,0,.577,3.77,5.762,5.762,0,0,1,.469,4.221c0,.006,0,.011,0,.016-.372.524-.756.752-1.136,1.312A7.375,7.375,0,0,0,8.349,55.9a6.561,6.561,0,0,0,.368,3.085,12.092,12.092,0,0,0,1.51,2.614,6.655,6.655,0,0,0-.2,1.237c-.121,2-1.583,3.618-2.872,5A89.025,89.025,0,0,1,.648,74.7c-.043.035,0,.109.053.092a10.017,10.017,0,0,0,3.685-2.661c1.529-1.423,3-2.832,4.484-4.306A9.618,9.618,0,0,0,11.2,64.049c.127,1.912-.754,3.783-.561,5.738A7.338,7.338,0,0,0,11.9,72.528c1.046,1.763.888,3.549,1.366,5.44a.271.271,0,0,0,.52,0c.734-2.727-.159-4.911-1.593-7.2-1.092-1.739-.542-3.608-.041-5.413a8.873,8.873,0,0,0-.033-2.52,4.022,4.022,0,0,0-.865-2.051c-.008-.022-.011-.045-.019-.065a.419.419,0,0,0-.174-.219c-.149-.216-.3-.427-.418-.63a6.038,6.038,0,0,1,.278-7.092,5.064,5.064,0,0,0,1.1-3.016c.254-.571.21-1.1-.255-2.269-1.089-2.736-1.085-4.968,1.205-7.009,3.445-3.069,9.576-4.15,13.918-4.806,2.687-.405,5.6-1.113,8.495-1.478a.294.294,0,0,0,.129-.014,20.14,20.14,0,0,1,6.511.095c2.706.561,3.86,2.58,4.9,4.912a52.977,52.977,0,0,1,2.566,6.692,8.472,8.472,0,0,0-1.165-.783c-3.512-1.973-8.724-.72-12.49-.376-2.322.211-4.635.739-6.928,1.155-2.574.467-5.123.53-7.713.8a.229.229,0,0,0,0,.457c7.482.913,14.932-1.338,22.431-1.488,4.815-.1,7.356,3.056,7.845,7.577.412,3.806-.89,7-2.007,10.428a10.262,10.262,0,0,0-4.536-5.269c-2.819-1.7-6.3-1.563-9.425-1.089-4.317.656-9.179,2.758-13.479,1.453-.2-.062-.29.213-.136.325,1.962,1.414,3.956,1.3,6.253.947a90.252,90.252,0,0,1,10.54-1.486,9.61,9.61,0,0,1,8.6,4.261c1.853,2.792,1.249,6.022.142,8.943-1.554-1.118-3.826-1.2-5.76-.935-2.454.333-4.845.994-7.315,1.19-2.3.182-5.118,1.047-7.273-.106a.172.172,0,0,0-.207.27c1.717,1.681,3.752,1.384,6,1.235,3.319-.22,6.5-.714,9.81-1.11,6.275-.752,5.56,5.8,2.745,9.162-2.01,2.4-5.239,3.048-8.247,3.584a3.188,3.188,0,0,0,.707-1.07c.068-.174-.1-.315-.25-.33-.894-.1-1.407.432-2.22.74a13.339,13.339,0,0,1-5.061.83,24.532,24.532,0,0,0-3.853.271c-1.064.179-3.051.66-4.114.148a.2.2,0,0,0-.234.306c1.514,1.871,6.191.753,8.2.766.557,0,1.219,0,1.916-.038-.146.119-.294.246-.452.381A14.558,14.558,0,0,1,26.5,90.186a21.9,21.9,0,0,1-9.682,1.134c-.186-.023-.224.288-.044.327a27.985,27.985,0,0,0,4.381.689,13.94,13.94,0,0,0-2.107,2.034,19.5,19.5,0,0,0-4.234,6.838.293.293,0,0,0,.534.227,49.772,49.772,0,0,1,4.148-5.716A9.081,9.081,0,0,1,22.058,93.2c.774-.379,1.608-.658,2.378-1.048a14.35,14.35,0,0,0,1.641-.395,17.247,17.247,0,0,0,4.887-2.15c1.431-.948,2.62-2.26,3.951-3.346.106-.029.214-.054.318-.088,6.278.463,15.854-4.333,13.827-11.992a4.4,4.4,0,0,0-.911-1.767c1.181-2.129,2.166-4.628,1.768-7.035"/><path class="d" d="M30.56,23.476a4.416,4.416,0,0,0-2.7-.091,4.988,4.988,0,0,0-2.485.68c-.056.044-.086.156,0,.192a5.805,5.805,0,0,0,2.485.035,6.078,6.078,0,0,0,2.7-.394.248.248,0,0,0,0-.422"/><path class="d" d="M43.409,37.178c-.335-.688-1.254-2.014-2.222-1.683a.215.215,0,0,0-.093.353c.246.246.513.48.769.718.019.018.03.038.048.056a.219.219,0,0,0-.077.294,5.813,5.813,0,0,1,.728,2.694,7.06,7.06,0,0,0,.283,2.415.32.32,0,0,0,.552,0,3.1,3.1,0,0,0,.16-.455.338.338,0,0,0,.333-.163c.728-1.359.135-2.966-.482-4.229"/><path class="d" d="M19.132,83.981c-.271-.657-1.015-.635-1.49-1.067-.567-.514-1.342-.606-1.909-1.082-.173-.146-.485-.015-.405.237.227.714.945.942,1.45,1.413a2.43,2.43,0,0,0,.915.686,1.973,1.973,0,0,0,1.234.174.3.3,0,0,0,.2-.362"/><path class="d" d="M12.37,84.858a.291.291,0,0,0-.459-.059c-.973,1.2-.541,2.975-.81,4.4A6.746,6.746,0,0,1,9.923,91.84c-.548.738-1.408,1.141-1.924,1.9-.14.2.128.44.323.326,1.833-1.066,3.009-1.738,3.9-3.8a7.884,7.884,0,0,0,.147-5.4"/><path class="d" d="M45.437,52.383c-.225-1.31-.324-3.094-1.338-4.08a.278.278,0,0,0-.46.27,28.856,28.856,0,0,1,.676,2.927c.306,1.549-.029,3.041.158,4.584.023.19.3.327.4.11a6.5,6.5,0,0,0,.564-3.812"/><path class="d" d="M44.489,64.041c-.155-.581-.407-2.181-1.154-2.317-.2-.036-.382.2-.209.361.447.41.543,2.034.672,2.587.293,1.254.142,2.549.332,3.809a.254.254,0,0,0,.463.061c.627-1.361.27-3.1-.1-4.5"/><path class="d" d="M30.56,23.476a4.416,4.416,0,0,0-2.7-.091,4.988,4.988,0,0,0-2.485.68c-.056.044-.086.156,0,.192a5.805,5.805,0,0,0,2.485.035,6.078,6.078,0,0,0,2.7-.394.248.248,0,0,0,0-.422"/><path class="d" d="M43.409,37.178c-.335-.688-1.254-2.014-2.222-1.683a.215.215,0,0,0-.093.353c.246.246.513.48.769.718.019.018.03.038.048.056a.219.219,0,0,0-.077.294,5.813,5.813,0,0,1,.728,2.694,7.06,7.06,0,0,0,.283,2.415.32.32,0,0,0,.552,0,3.1,3.1,0,0,0,.16-.455.338.338,0,0,0,.333-.163c.728-1.359.135-2.966-.482-4.229"/><path class="d" d="M19.132,83.981c-.271-.657-1.015-.635-1.49-1.067-.567-.514-1.342-.606-1.909-1.082-.173-.146-.485-.015-.405.237.227.714.945.942,1.45,1.413a2.43,2.43,0,0,0,.915.686,1.973,1.973,0,0,0,1.234.174.3.3,0,0,0,.2-.362"/><path class="d" d="M12.37,84.858a.291.291,0,0,0-.459-.059c-.973,1.2-.541,2.975-.81,4.4A6.746,6.746,0,0,1,9.923,91.84c-.548.738-1.408,1.141-1.924,1.9-.14.2.128.44.323.326,1.833-1.066,3.009-1.738,3.9-3.8a7.884,7.884,0,0,0,.147-5.4"/><path class="d" d="M45.437,52.383c-.225-1.31-.324-3.094-1.338-4.08a.278.278,0,0,0-.46.27,28.856,28.856,0,0,1,.676,2.927c.306,1.549-.029,3.041.158,4.584.023.19.3.327.4.11a6.5,6.5,0,0,0,.564-3.812"/><path class="d" d="M44.489,64.041c-.155-.581-.407-2.181-1.154-2.317-.2-.036-.382.2-.209.361.447.41.543,2.034.672,2.587.293,1.254.142,2.549.332,3.809a.254.254,0,0,0,.463.061c.627-1.361.27-3.1-.1-4.5"/></g></g></g></svg>